<mxfile host="Electron" agent="Mozilla/5.0 (Macintosh; Intel Mac OS X 10_15_7) AppleWebKit/537.36 (KHTML, like Gecko) draw.io/24.7.17 Chrome/128.0.6613.36 Electron/32.0.1 Safari/537.36" version="24.7.17">
  <diagram name="Page-1" id="XDQQBNv-zNsL9J7Tzbbo">
    <mxGraphModel dx="1820" dy="657" grid="1" gridSize="10" guides="1" tooltips="1" connect="1" arrows="1" fold="1" page="1" pageScale="1" pageWidth="850" pageHeight="1100" math="1" shadow="0">
      <root>
        <mxCell id="0" />
        <mxCell id="1" parent="0" />
        <mxCell id="zdgr0KkH03x4IK5yPSz4-60" value="" style="group" parent="1" vertex="1" connectable="0">
          <mxGeometry x="-630" y="230" width="1500" height="900" as="geometry" />
        </mxCell>
        <mxCell id="zdgr0KkH03x4IK5yPSz4-27" style="edgeStyle=orthogonalEdgeStyle;rounded=0;orthogonalLoop=1;jettySize=auto;html=1;" parent="zdgr0KkH03x4IK5yPSz4-60" source="zdgr0KkH03x4IK5yPSz4-14" target="zdgr0KkH03x4IK5yPSz4-15" edge="1">
          <mxGeometry relative="1" as="geometry" />
        </mxCell>
        <mxCell id="zdgr0KkH03x4IK5yPSz4-14" value="&lt;font face=&quot;Courier New&quot; style=&quot;font-size: 16px;&quot;&gt;交易系统&lt;/font&gt;" style="rounded=0;whiteSpace=wrap;html=1;" parent="zdgr0KkH03x4IK5yPSz4-60" vertex="1">
          <mxGeometry y="400" width="120" height="60" as="geometry" />
        </mxCell>
        <mxCell id="zdgr0KkH03x4IK5yPSz4-15" value="&lt;font style=&quot;font-size: 16px;&quot; face=&quot;Courier New&quot;&gt;front-api&lt;/font&gt;" style="rounded=0;whiteSpace=wrap;html=1;" parent="zdgr0KkH03x4IK5yPSz4-60" vertex="1">
          <mxGeometry x="390" y="400" width="120" height="60" as="geometry" />
        </mxCell>
        <mxCell id="zdgr0KkH03x4IK5yPSz4-1" value="&lt;font face=&quot;Courier New&quot;&gt;&lt;span style=&quot;font-size: 16px;&quot;&gt;机器学习&lt;/span&gt;&lt;/font&gt;" style="rounded=0;whiteSpace=wrap;html=1;" parent="zdgr0KkH03x4IK5yPSz4-60" vertex="1">
          <mxGeometry x="10" width="120" height="60" as="geometry" />
        </mxCell>
        <mxCell id="zdgr0KkH03x4IK5yPSz4-6" value="" style="edgeStyle=orthogonalEdgeStyle;rounded=0;orthogonalLoop=1;jettySize=auto;html=1;" parent="zdgr0KkH03x4IK5yPSz4-60" source="zdgr0KkH03x4IK5yPSz4-1" target="zdgr0KkH03x4IK5yPSz4-2" edge="1">
          <mxGeometry relative="1" as="geometry" />
        </mxCell>
        <mxCell id="zdgr0KkH03x4IK5yPSz4-7" value="" style="edgeStyle=orthogonalEdgeStyle;rounded=0;orthogonalLoop=1;jettySize=auto;html=1;" parent="zdgr0KkH03x4IK5yPSz4-60" source="zdgr0KkH03x4IK5yPSz4-2" target="zdgr0KkH03x4IK5yPSz4-3" edge="1">
          <mxGeometry relative="1" as="geometry" />
        </mxCell>
        <mxCell id="zdgr0KkH03x4IK5yPSz4-2" value="&lt;font face=&quot;Courier New&quot; style=&quot;font-size: 16px;&quot;&gt;kafka&lt;/font&gt;" style="rounded=0;whiteSpace=wrap;html=1;" parent="zdgr0KkH03x4IK5yPSz4-60" vertex="1">
          <mxGeometry x="375" width="120" height="60" as="geometry" />
        </mxCell>
        <mxCell id="zdgr0KkH03x4IK5yPSz4-3" value="&lt;font style=&quot;font-size: 16px;&quot; face=&quot;Courier New&quot;&gt;event-sdk&lt;/font&gt;" style="rounded=0;whiteSpace=wrap;html=1;" parent="zdgr0KkH03x4IK5yPSz4-60" vertex="1">
          <mxGeometry x="1200" width="120" height="60" as="geometry" />
        </mxCell>
        <mxCell id="zdgr0KkH03x4IK5yPSz4-43" value="&lt;font face=&quot;Courier New&quot; style=&quot;font-size: 16px;&quot;&gt;manage-system&lt;/font&gt;" style="rounded=0;whiteSpace=wrap;html=1;" parent="zdgr0KkH03x4IK5yPSz4-60" vertex="1">
          <mxGeometry x="375" y="710" width="150" height="80" as="geometry" />
        </mxCell>
        <mxCell id="zdgr0KkH03x4IK5yPSz4-45" style="edgeStyle=orthogonalEdgeStyle;rounded=0;orthogonalLoop=1;jettySize=auto;html=1;entryX=0;entryY=0.5;entryDx=0;entryDy=0;" parent="zdgr0KkH03x4IK5yPSz4-60" source="zdgr0KkH03x4IK5yPSz4-44" target="zdgr0KkH03x4IK5yPSz4-43" edge="1">
          <mxGeometry relative="1" as="geometry" />
        </mxCell>
        <mxCell id="zdgr0KkH03x4IK5yPSz4-44" value="&lt;font face=&quot;Courier New&quot; style=&quot;font-size: 16px;&quot;&gt;管理员&lt;/font&gt;" style="rounded=0;whiteSpace=wrap;html=1;" parent="zdgr0KkH03x4IK5yPSz4-60" vertex="1">
          <mxGeometry y="720" width="120" height="60" as="geometry" />
        </mxCell>
        <mxCell id="zdgr0KkH03x4IK5yPSz4-46" style="edgeStyle=orthogonalEdgeStyle;rounded=0;orthogonalLoop=1;jettySize=auto;html=1;entryX=0.599;entryY=0.981;entryDx=0;entryDy=0;entryPerimeter=0;" parent="zdgr0KkH03x4IK5yPSz4-60" source="zdgr0KkH03x4IK5yPSz4-43" target="zdgr0KkH03x4IK5yPSz4-28" edge="1">
          <mxGeometry relative="1" as="geometry">
            <Array as="points">
              <mxPoint x="1042" y="750" />
            </Array>
          </mxGeometry>
        </mxCell>
        <mxCell id="zdgr0KkH03x4IK5yPSz4-50" value="&lt;font face=&quot;Courier New&quot; style=&quot;font-size: 16px;&quot;&gt;static-task&lt;/font&gt;" style="rounded=0;whiteSpace=wrap;html=1;" parent="zdgr0KkH03x4IK5yPSz4-60" vertex="1">
          <mxGeometry x="370" y="840" width="150" height="60" as="geometry" />
        </mxCell>
        <mxCell id="zdgr0KkH03x4IK5yPSz4-58" value="" style="group;dashed=1;" parent="zdgr0KkH03x4IK5yPSz4-60" vertex="1" connectable="0">
          <mxGeometry x="1025" y="100" width="475" height="130" as="geometry" />
        </mxCell>
        <mxCell id="zdgr0KkH03x4IK5yPSz4-12" value="" style="group;dashed=1;" parent="zdgr0KkH03x4IK5yPSz4-58" vertex="1" connectable="0">
          <mxGeometry width="475" height="130" as="geometry" />
        </mxCell>
        <mxCell id="zdgr0KkH03x4IK5yPSz4-10" value="" style="rounded=0;whiteSpace=wrap;html=1;dashed=1;" parent="zdgr0KkH03x4IK5yPSz4-12" vertex="1">
          <mxGeometry y="10" width="475" height="120" as="geometry" />
        </mxCell>
        <mxCell id="zdgr0KkH03x4IK5yPSz4-57" value="" style="group" parent="zdgr0KkH03x4IK5yPSz4-12" vertex="1" connectable="0">
          <mxGeometry x="65" width="360" height="100" as="geometry" />
        </mxCell>
        <mxCell id="zdgr0KkH03x4IK5yPSz4-9" style="edgeStyle=orthogonalEdgeStyle;rounded=0;orthogonalLoop=1;jettySize=auto;html=1;" parent="zdgr0KkH03x4IK5yPSz4-57" target="zdgr0KkH03x4IK5yPSz4-4" edge="1">
          <mxGeometry relative="1" as="geometry">
            <mxPoint x="170" as="sourcePoint" />
          </mxGeometry>
        </mxCell>
        <mxCell id="zdgr0KkH03x4IK5yPSz4-4" value="&lt;font face=&quot;Courier New&quot; style=&quot;font-size: 15px;&quot;&gt;database&lt;/font&gt;" style="rounded=0;whiteSpace=wrap;html=1;" parent="zdgr0KkH03x4IK5yPSz4-57" vertex="1">
          <mxGeometry x="240" y="40" width="120" height="60" as="geometry" />
        </mxCell>
        <mxCell id="zdgr0KkH03x4IK5yPSz4-5" value="&lt;font face=&quot;Courier New&quot; style=&quot;font-size: 15px;&quot;&gt;reds&lt;/font&gt;" style="rounded=0;whiteSpace=wrap;html=1;" parent="zdgr0KkH03x4IK5yPSz4-57" vertex="1">
          <mxGeometry y="40" width="120" height="60" as="geometry" />
        </mxCell>
        <mxCell id="zdgr0KkH03x4IK5yPSz4-11" value="&lt;font face=&quot;Courier New&quot; style=&quot;font-size: 16px;&quot;&gt;特征数据库&lt;/font&gt;" style="text;html=1;align=center;verticalAlign=middle;whiteSpace=wrap;rounded=0;" parent="zdgr0KkH03x4IK5yPSz4-57" vertex="1">
          <mxGeometry x="120" y="20" width="100" height="30" as="geometry" />
        </mxCell>
        <mxCell id="zdgr0KkH03x4IK5yPSz4-59" value="" style="group" parent="zdgr0KkH03x4IK5yPSz4-60" vertex="1" connectable="0">
          <mxGeometry x="560" y="300" width="590" height="270" as="geometry" />
        </mxCell>
        <mxCell id="zdgr0KkH03x4IK5yPSz4-53" value="" style="rounded=0;whiteSpace=wrap;html=1;dashed=1;" parent="zdgr0KkH03x4IK5yPSz4-59" vertex="1">
          <mxGeometry width="590" height="270" as="geometry" />
        </mxCell>
        <mxCell id="zdgr0KkH03x4IK5yPSz4-35" style="edgeStyle=orthogonalEdgeStyle;rounded=0;orthogonalLoop=1;jettySize=auto;html=1;" parent="zdgr0KkH03x4IK5yPSz4-59" source="zdgr0KkH03x4IK5yPSz4-17" target="zdgr0KkH03x4IK5yPSz4-28" edge="1">
          <mxGeometry relative="1" as="geometry" />
        </mxCell>
        <mxCell id="zdgr0KkH03x4IK5yPSz4-17" value="普通规则引擎" style="rounded=0;whiteSpace=wrap;html=1;" parent="zdgr0KkH03x4IK5yPSz4-59" vertex="1">
          <mxGeometry x="160" y="60" width="119.69" height="60" as="geometry" />
        </mxCell>
        <mxCell id="zdgr0KkH03x4IK5yPSz4-36" style="edgeStyle=orthogonalEdgeStyle;rounded=0;orthogonalLoop=1;jettySize=auto;html=1;entryX=0;entryY=0.5;entryDx=0;entryDy=0;" parent="zdgr0KkH03x4IK5yPSz4-59" source="zdgr0KkH03x4IK5yPSz4-18" target="zdgr0KkH03x4IK5yPSz4-28" edge="1">
          <mxGeometry relative="1" as="geometry" />
        </mxCell>
        <mxCell id="zdgr0KkH03x4IK5yPSz4-18" value="状态机规则引擎" style="rounded=0;whiteSpace=wrap;html=1;" parent="zdgr0KkH03x4IK5yPSz4-59" vertex="1">
          <mxGeometry x="160" y="170" width="119.69" height="60" as="geometry" />
        </mxCell>
        <mxCell id="zdgr0KkH03x4IK5yPSz4-28" value="&lt;font face=&quot;Courier New&quot; style=&quot;font-size: 16px;&quot;&gt;database&lt;/font&gt;" style="rounded=0;whiteSpace=wrap;html=1;" parent="zdgr0KkH03x4IK5yPSz4-59" vertex="1">
          <mxGeometry x="410" y="120" width="120" height="60" as="geometry" />
        </mxCell>
        <mxCell id="zdgr0KkH03x4IK5yPSz4-54" value="&lt;font face=&quot;Courier New&quot; style=&quot;font-size: 16px;&quot;&gt;规则引擎&lt;/font&gt;" style="text;html=1;align=center;verticalAlign=middle;whiteSpace=wrap;rounded=0;" parent="zdgr0KkH03x4IK5yPSz4-59" vertex="1">
          <mxGeometry x="300" y="10" width="90" height="30" as="geometry" />
        </mxCell>
        <mxCell id="zdgr0KkH03x4IK5yPSz4-52" style="edgeStyle=orthogonalEdgeStyle;rounded=0;orthogonalLoop=1;jettySize=auto;html=1;entryX=0.595;entryY=1.034;entryDx=0;entryDy=0;entryPerimeter=0;" parent="zdgr0KkH03x4IK5yPSz4-60" source="zdgr0KkH03x4IK5yPSz4-50" target="zdgr0KkH03x4IK5yPSz4-28" edge="1">
          <mxGeometry relative="1" as="geometry" />
        </mxCell>
        <mxCell id="zdgr0KkH03x4IK5yPSz4-42" style="edgeStyle=orthogonalEdgeStyle;rounded=0;orthogonalLoop=1;jettySize=auto;html=1;entryX=0.75;entryY=1;entryDx=0;entryDy=0;" parent="zdgr0KkH03x4IK5yPSz4-60" source="zdgr0KkH03x4IK5yPSz4-18" target="zdgr0KkH03x4IK5yPSz4-5" edge="1">
          <mxGeometry relative="1" as="geometry">
            <Array as="points">
              <mxPoint x="780" y="610" />
              <mxPoint x="1180" y="610" />
            </Array>
          </mxGeometry>
        </mxCell>
        <mxCell id="zdgr0KkH03x4IK5yPSz4-39" style="edgeStyle=orthogonalEdgeStyle;rounded=0;orthogonalLoop=1;jettySize=auto;html=1;exitX=0.5;exitY=0;exitDx=0;exitDy=0;entryX=0.25;entryY=1;entryDx=0;entryDy=0;" parent="zdgr0KkH03x4IK5yPSz4-60" source="zdgr0KkH03x4IK5yPSz4-17" target="zdgr0KkH03x4IK5yPSz4-5" edge="1">
          <mxGeometry relative="1" as="geometry" />
        </mxCell>
        <mxCell id="zdgr0KkH03x4IK5yPSz4-8" style="edgeStyle=orthogonalEdgeStyle;rounded=0;orthogonalLoop=1;jettySize=auto;html=1;" parent="zdgr0KkH03x4IK5yPSz4-60" source="zdgr0KkH03x4IK5yPSz4-3" target="zdgr0KkH03x4IK5yPSz4-5" edge="1">
          <mxGeometry relative="1" as="geometry" />
        </mxCell>
        <mxCell id="zdgr0KkH03x4IK5yPSz4-37" style="edgeStyle=orthogonalEdgeStyle;rounded=0;orthogonalLoop=1;jettySize=auto;html=1;" parent="zdgr0KkH03x4IK5yPSz4-60" source="zdgr0KkH03x4IK5yPSz4-15" target="zdgr0KkH03x4IK5yPSz4-17" edge="1">
          <mxGeometry relative="1" as="geometry" />
        </mxCell>
        <mxCell id="zdgr0KkH03x4IK5yPSz4-38" style="edgeStyle=orthogonalEdgeStyle;rounded=0;orthogonalLoop=1;jettySize=auto;html=1;entryX=0;entryY=0.5;entryDx=0;entryDy=0;" parent="zdgr0KkH03x4IK5yPSz4-60" source="zdgr0KkH03x4IK5yPSz4-15" target="zdgr0KkH03x4IK5yPSz4-18" edge="1">
          <mxGeometry relative="1" as="geometry" />
        </mxCell>
      </root>
    </mxGraphModel>
  </diagram>
</mxfile>
